<?xml version="1.0" encoding="UTF-8" standalone="no"?>
<svg
   id="Camada_1"
   viewBox="0 0 772.96 184.77"
   version="1.1"
   sodipodi:docname="alfacon-logo.svg"
   inkscape:version="1.3.2 (091e20ef0f, 2023-11-25, custom)"
   xmlns:inkscape="http://www.inkscape.org/namespaces/inkscape"
   xmlns:sodipodi="http://sodipodi.sourceforge.net/DTD/sodipodi-0.dtd"
   xmlns="http://www.w3.org/2000/svg"
   xmlns:svg="http://www.w3.org/2000/svg">
  <sodipodi:namedview
     id="namedview9"
     pagecolor="#505050"
     bordercolor="#eeeeee"
     borderopacity="1"
     inkscape:showpageshadow="0"
     inkscape:pageopacity="0"
     inkscape:pagecheckerboard="0"
     inkscape:deskcolor="#505050"
     inkscape:zoom="1.7400641"
     inkscape:cx="386.48001"
     inkscape:cy="92.525326"
     inkscape:window-width="1920"
     inkscape:window-height="1011"
     inkscape:window-x="0"
     inkscape:window-y="32"
     inkscape:window-maximized="1"
     inkscape:current-layer="g7" />
  <defs
     id="defs1">
    <style
       id="style1">
      .cls-1 {
        fill: #fff;
      }

      .cls-2 {
        fill: #003cff;
      }
    </style>
  </defs>
  <g
     id="g7">
    <path
       class="cls-1"
       d="M 157.82674,12.120366 V 170.34363 c 0,2.02477 1.63646,3.66123 3.66123,3.66123 h 22.5637 c 2.02477,0 3.66122,-1.63646 3.66122,-3.66123 V 12.120366 c 0,-2.02477 -1.63645,-3.6612276 -3.66122,-3.6612276 h -22.5637 c -2.02477,0 -3.66123,1.6364576 -3.66123,3.6612276 z"
       id="path1"
       style="stroke-width:1.38683" />
    <g
       id="g6"
       transform="matrix(1.3868285,0,0,1.3868285,-299.02231,-35.739086)">
      <path
         class="cls-1"
         d="m 284.1,41.52 c -1.44,-4.79 -5.85,-8.07 -10.85,-8.07 h -9.9 c -4.87,0 -9.19,3.14 -10.69,7.78 L 218.3,147.47 c -0.58,1.9 0.85,3.83 2.84,3.83 h 16.4 c 1.36,0 2.57,-0.9 2.96,-2.22 l 4.51,-15.22 2.73,-9.21 h 0.04 l 5.89,-19.59 v 0 l 6.15,-20.43 1.91,-6.37 5.47,-18.15 5.01,16.8 0.09,0.3 16.62,55.37 5.01,16.6 c 0.37,1.25 1.53,2.11 2.84,2.11 h 16.21 c 2,0 3.43,-1.92 2.86,-3.84 L 284.11,41.52 Z"
         id="path2" />
      <path
         class="cls-1"
         d="m 553.29,89.32 c 2.25,0 4.41,0.16 6.48,0.48 2.06,0.32 3.9,0.99 5.5,2 1.59,1.02 2.94,2.44 4.02,4.26 0.8,1.34 1.4,2.98 1.82,4.9 0.27,1.25 1.35,2.16 2.62,2.16 h 15.69 c 1.64,0 2.91,-1.48 2.65,-3.1 -0.77,-4.88 -2.09,-9.12 -3.96,-12.71 -2.25,-4.34 -5.12,-7.84 -8.6,-10.52 -3.47,-2.67 -7.4,-4.6 -11.77,-5.78 -4.37,-1.17 -9,-1.76 -13.89,-1.76 -6.01,0 -11.49,0.86 -16.43,2.57 -4.93,1.71 -9.16,4.31 -12.69,7.78 -3.52,3.48 -6.25,7.84 -8.18,13.09 -1.92,5.25 -2.89,11.35 -2.89,18.31 0,6.96 0.96,13.22 2.89,18.46 1.92,5.25 4.6,9.61 8.04,13.09 3.43,3.48 7.59,6.08 12.48,7.79 4.89,1.71 10.29,2.57 16.22,2.57 4.79,0 9.4,-0.46 13.82,-1.37 4.41,-0.91 8.36,-2.54 11.84,-4.9 3.47,-2.36 6.41,-5.52 8.81,-9.48 1.97,-3.26 3.36,-7.25 4.15,-11.96 0.28,-1.63 -1,-3.12 -2.65,-3.12 h -16.78 c -1.21,0 -2.23,0.82 -2.58,1.98 -0.43,1.45 -1.06,2.66 -1.88,3.64 -1.17,1.39 -2.56,2.47 -4.16,3.21 -1.6,0.75 -3.31,1.23 -5.15,1.45 -1.84,0.21 -3.64,0.32 -5.43,0.32 -6.49,0 -11.21,-1.79 -14.17,-5.38 -2.96,-3.59 -4.44,-9.07 -4.44,-16.46 0,-7.39 1.45,-12.68 4.37,-16.21 2.91,-3.54 7.66,-5.3 14.24,-5.3 z"
         id="path3" />
      <path
         class="cls-1"
         d="m 675.61,83.05 c -3.06,-4.06 -7.12,-7.38 -12.2,-9.95 -5.08,-2.57 -11.42,-3.85 -19.04,-3.85 -7.62,0 -13.98,1.28 -19.1,3.85 -5.12,2.57 -9.26,5.86 -12.41,9.87 -3.15,4.02 -5.38,8.51 -6.7,13.49 -1.31,4.97 -1.98,9.92 -1.98,14.85 0,6.21 0.94,11.88 2.82,17.02 1.88,5.14 4.56,9.53 8.04,13.16 3.47,3.64 7.68,6.45 12.62,8.43 4.93,1.98 10.5,2.97 16.7,2.97 6.2,0 11.75,-0.99 16.64,-2.97 4.89,-1.98 9.05,-4.79 12.48,-8.43 3.43,-3.64 6.06,-8 7.89,-13.09 1.83,-5.08 2.75,-10.72 2.75,-16.93 0,-4.92 -0.65,-9.87 -1.97,-14.85 -1.32,-4.97 -3.51,-9.49 -6.56,-13.57 z m -12.98,36.05 c -0.62,2.52 -1.67,4.71 -3.17,6.58 -1.51,1.87 -3.5,3.35 -5.99,4.41 -2.49,1.07 -5.57,1.61 -9.24,1.61 -3.67,0 -6.75,-0.54 -9.24,-1.61 -2.49,-1.07 -4.46,-2.55 -5.92,-4.41 -1.46,-1.87 -2.52,-4.07 -3.18,-6.58 -0.65,-2.51 -0.98,-5.22 -0.98,-8.11 0,-2.89 0.3,-5.59 0.92,-8.11 0.61,-2.52 1.67,-4.71 3.17,-6.58 1.51,-1.87 3.5,-3.35 5.99,-4.41 2.49,-1.07 5.57,-1.61 9.24,-1.61 3.67,0 6.89,0.54 9.38,1.61 2.49,1.07 4.46,2.54 5.92,4.41 1.45,1.87 2.48,4.07 3.1,6.58 0.61,2.51 0.92,5.21 0.92,8.11 0,2.9 -0.31,5.59 -0.92,8.11 z"
         id="path4" />
      <path
         class="cls-1"
         d="m 768.24,81.85 c -2.03,-3.69 -5.05,-6.71 -9.1,-9.07 -4.04,-2.36 -9.54,-3.53 -16.49,-3.53 -0.66,0 -1.76,0.11 -3.32,0.32 -1.55,0.21 -3.27,0.7 -5.15,1.44 -1.88,0.75 -3.83,1.9 -5.85,3.45 -2.02,1.56 -3.88,3.67 -5.57,6.34 v -7.32 c 0,-1.46 -1.18,-2.64 -2.64,-2.64 h -16.16 c -1.46,0 -2.64,1.18 -2.64,2.64 v 75.16 c 0,1.46 1.18,2.64 2.64,2.64 h 16.3 c 1.46,0 2.64,-1.18 2.64,-2.64 v -39.27 c 0,-5.67 1.34,-10.14 4.02,-13.4 2.68,-3.27 6.18,-4.95 10.51,-5.06 4.42,-0.11 7.85,1.37 10.29,4.41 2.44,3.05 3.66,7.46 3.66,13.24 v 40.07 c 0,1.46 1.18,2.64 2.64,2.64 h 16.3 c 1.46,0 2.64,-1.18 2.64,-2.64 v -42.16 c 0,-4.07 -0.28,-8.27 -0.84,-12.6 -0.56,-4.33 -1.86,-8.35 -3.88,-12.04 z"
         id="path5" />
      <path
         class="cls-1"
         d="M 770.28,33.45 H 417.56 c 0,0 -0.04,0 -0.06,0 h -7.75 c -6.2,0 -11.33,0.44 -15.36,1.3 -4.04,0.84 -7.22,2.32 -9.52,4.41 -2.3,2.09 -3.9,4.9 -4.79,8.42 -0.9,3.54 -1.34,7.98 -1.34,13.33 v 9.96 h -14.09 c -1.79,0 -3.08,1.73 -2.57,3.44 l 1.29,4.29 2.88,9.6 c 0.21,0.71 0.7,1.29 1.33,1.61 0.38,0.2 0.8,0.31 1.25,0.31 h 9.92 v 58.51 c 0,1.47 1.21,2.68 2.68,2.68 h 16.22 c 1.49,0 2.68,-1.21 2.68,-2.68 V 90.12 h 32.99 v 0.02 h 33.42 c 2.91,0 5.22,0.35 6.91,1.05 1.7,0.69 2.54,2.11 2.54,4.25 l 0.14,6.1 h -23.69 c -4.14,0 -7.83,0.67 -11.07,2 -3.24,1.34 -5.99,3.16 -8.25,5.46 -2.25,2.3 -3.99,5.04 -5.21,8.19 -1.23,3.16 -1.84,6.56 -1.84,10.19 0,4.07 0.68,7.68 2.04,10.84 1.37,3.16 3.22,5.83 5.57,8.03 2.35,2.19 5.12,3.85 8.32,4.97 3.19,1.12 6.63,1.69 10.29,1.69 5.35,0 10.05,-1.12 14.1,-3.37 4.04,-2.25 7.33,-5.08 9.87,-8.51 l 0.15,1.12 c 0.65,2.79 1.95,5.01 3.88,6.66 1.92,1.66 4.11,2.49 6.56,2.49 h 14.27 c 1.15,0 2.09,-0.93 2.09,-2.09 V 134.6 c 0,-1.15 -0.93,-2.09 -2.09,-2.09 h -4.96 V 99.76 c 0,-4.07 -0.47,-7.87 -1.41,-11.4 -0.94,-3.53 -2.54,-6.58 -4.79,-9.15 -2.25,-2.57 -5.24,-4.6 -8.95,-6.1 -2.91,-1.17 -6.38,-1.89 -10.41,-2.14 -0.96,-0.06 -1.95,-0.1 -2.97,-0.1 -0.17,0 -0.34,0 -0.51,0 h -33.98 c 0,0 -17.2,0 -17.2,0 h -15.92 v -9.63 c 0,-2.79 0.66,-4.66 1.97,-5.62 1.31,-0.96 3.15,-1.45 5.49,-1.45 l 5.62,-0.07 1.7,-0.03 c 0.08,0 0.15,0.02 0.22,0.02 h 355.11 c 1.48,0 2.68,-1.2 2.68,-2.68 V 36.13 c 0,-1.48 -1.2,-2.68 -2.68,-2.68 z M 476.3,119.5 c 0,2.25 -0.57,4.34 -1.69,6.26 -1.13,1.92 -2.56,3.56 -4.3,4.9 -1.74,1.34 -3.69,2.38 -5.85,3.13 -2.17,0.75 -4.28,1.12 -6.34,1.12 -1.32,0 -2.61,-0.13 -3.88,-0.4 -1.27,-0.27 -2.42,-0.72 -3.46,-1.36 -1.04,-0.64 -1.88,-1.5 -2.53,-2.57 -0.66,-1.07 -0.99,-2.41 -0.99,-4.02 0,-2.78 0.9,-5 2.68,-6.66 1.78,-1.66 4.88,-2.48 9.31,-2.48 h 17.06 v 2.09 z"
         id="path6" />
    </g>
  </g>
  <circle
     class="cls-1"
     cx="71.357994"
     cy="155.92061"
     id="circle9"
     r="18.098112"
     style="stroke-width:1.38683" />
</svg>
